<?xml version="1.0" encoding="utf-8"?>
<!-- Generator: Adobe Illustrator 16.0.4, SVG Export Plug-In . SVG Version: 6.00 Build 0)  -->
<!DOCTYPE svg PUBLIC "-//W3C//DTD SVG 1.1//EN" "http://www.w3.org/Graphics/SVG/1.1/DTD/svg11.dtd">
<svg version="1.1" id="Isolation_Mode" xmlns="http://www.w3.org/2000/svg" xmlns:xlink="http://www.w3.org/1999/xlink" x="0px"
	 y="0px" width="106.246px" height="48.289px" viewBox="149.881 234.673 106.246 48.289"
	 enable-background="new 149.881 234.673 106.246 48.289" xml:space="preserve">
<g>
	<g>
		<path fill="#8490AD" d="M204.856,277.197h-0.516v-0.76h2.157c1.263,0,1.912,0.522,1.912,1.544c0,0.979-0.694,1.665-1.732,1.665
			h-0.731v1.254h0.516v0.761h-2.121V280.9h0.516L204.856,277.197L204.856,277.197z M206.536,278.884
			c0.545,0,0.828-0.328,0.828-0.858c0-0.537-0.32-0.829-0.842-0.829h-0.576v1.688L206.536,278.884L206.536,278.884z"/>
		<path fill="#8490AD" d="M213.542,279.901h-1.799l-0.373,0.999h0.501v0.761h-1.941V280.9h0.418l1.836-4.463h1.201l1.725,4.463
			h0.418v0.761h-2.075V280.9h0.426L213.542,279.901z M212.893,278.005c-0.082-0.233-0.159-0.488-0.194-0.763h-0.015
			c-0.06,0.274-0.142,0.522-0.231,0.763l-0.404,1.089h1.217L212.893,278.005z"/>
		<path fill="#8490AD" d="M218.243,277.197h-0.515v-0.76h2.308c0.612,0,0.798,0.043,1.097,0.193c0.472,0.231,0.703,0.708,0.703,1.24
			c0,0.776-0.65,1.328-1.232,1.35v0.014c0.261,0.024,0.41,0.121,0.671,0.553l0.47,0.784c0.157,0.27,0.284,0.329,0.427,0.329h0.193
			v0.761h-0.836c-0.276,0-0.471-0.095-0.873-0.784l-0.636-1.089c-0.104-0.172-0.239-0.262-0.433-0.262h-0.255v1.375h0.472v0.761
			h-2.032V280.9h0.471V277.197z M219.332,278.72h0.561c0.583,0,0.852-0.253,0.852-0.76c0-0.509-0.254-0.763-0.918-0.763h-0.495
			V278.72L219.332,278.72z"/>
		<path fill="#8490AD" d="M228.091,277.197h-0.941v3.703h0.471v0.761h-2.03V280.9h0.469v-3.703h-0.94l-0.045,0.716h-0.896
			l0.044-1.477h4.764l0.044,1.477h-0.895L228.091,277.197z"/>
		<path fill="#8490AD" d="M231.356,280.9h0.484v-3.703h-0.665v-0.76h1.516l2.203,2.77c0.231,0.291,0.373,0.498,0.44,0.7h0.016
			v-2.709h-0.478v-0.76h1.888v0.76h-0.515v4.464h-0.807l-2.487-3.12c-0.126-0.157-0.229-0.329-0.245-0.403h-0.015v2.762h0.507v0.761
			h-1.843L231.356,280.9L231.356,280.9z"/>
		<path fill="#8490AD" d="M242.045,280.02h0.896l-0.06,1.641h-3.757V280.9h0.472v-3.703h-0.56v-0.76h3.823l0.043,1.536h-0.896
			l-0.045-0.776h-1.276v1.374H242v0.807h-1.312v1.522h1.298L242.045,280.02z"/>
		<path fill="#8490AD" d="M245.796,277.197h-0.516v-0.76h2.307c0.612,0,0.799,0.043,1.099,0.193c0.47,0.231,0.701,0.708,0.701,1.24
			c0,0.776-0.649,1.328-1.231,1.35v0.014c0.262,0.024,0.411,0.121,0.672,0.553l0.47,0.784c0.157,0.27,0.285,0.329,0.426,0.329h0.194
			v0.761h-0.836c-0.276,0-0.471-0.095-0.875-0.784l-0.633-1.089c-0.104-0.172-0.239-0.262-0.434-0.262h-0.254v1.375h0.472v0.761
			h-2.03V280.9h0.47v-3.703H245.796z M246.885,278.72h0.561c0.583,0,0.851-0.253,0.851-0.76c0-0.509-0.253-0.763-0.917-0.763h-0.495
			V278.72z"/>
		<path fill="#8490AD" d="M254.918,277.235c-0.194-0.068-0.448-0.127-0.702-0.127c-0.724,0-0.956,0.373-0.956,0.664
			c0,0.38,0.276,0.493,0.62,0.575l0.628,0.156c0.77,0.194,1.619,0.448,1.619,1.532c0,0.993-0.671,1.716-2.156,1.716
			c-0.574,0-1.173-0.058-1.875-0.291v-1.381h1.091v0.687c0.275,0.111,0.574,0.134,0.879,0.134c0.643,0,0.927-0.305,0.927-0.701
			c0-0.268-0.149-0.463-0.85-0.644l-0.577-0.149c-1.075-0.275-1.44-0.693-1.44-1.499c0-0.832,0.582-1.562,2.06-1.562
			c0.636,0,1.27,0.104,1.718,0.277v1.249h-0.986V277.235L254.918,277.235z"/>
	</g>
	<g>
		<g>
			<g>
				<path fill="#C39974" d="M174.051,280.56c0.254-0.946,0.019-2.99-0.65-5.61c-0.005-0.036,0.012-0.074,0.047-0.085
					c0.037-0.011,0.075,0.007,0.089,0.04c1.134,2.84,1.598,4.835,1.356,5.792c-0.013,0.059,0.01,0.123,0.053,0.161
					c0.049,0.038,0.111,0.05,0.168,0.025c0.09-0.039,2.208-0.997,2.063-2.67c-0.011-0.141-0.042-0.3-0.092-0.479
					c-0.276-1.003-1.152-2.593-2.468-4.472c-0.022-0.03-0.014-0.072,0.013-0.096c0.03-0.024,0.071-0.021,0.099,0.007
					c1.746,1.936,2.765,3.402,3.029,4.361c0.029,0.106,0.048,0.206,0.059,0.299c0.005,0.041,0.04,0.095,0.089,0.112
					c0.049,0.018,0.104,0.007,0.142-0.029c0.056-0.055,1.373-1.334,1.018-2.624c-0.025-0.091-0.058-0.178-0.097-0.26
					c-0.363-0.784-1.725-2.035-3.738-3.441c-0.032-0.02-0.039-0.062-0.019-0.093c0.019-0.032,0.058-0.042,0.091-0.026
					c2.301,1.22,3.654,2.223,4.023,2.977c0.019,0.04,0.06,0.066,0.104,0.066s0.084-0.024,0.104-0.064
					c0.022-0.045,0.539-1.106,0.285-2.032c-0.073-0.267-0.205-0.494-0.393-0.685c-0.594-0.593-2.053-1.236-4-1.761
					c-0.038-0.009-0.06-0.045-0.052-0.081c0.009-0.036,0.042-0.062,0.079-0.055c2.22,0.331,3.617,0.762,4.156,1.283
					c0.027,0.028,0.069,0.036,0.106,0.022c0.038-0.013,0.064-0.046,0.07-0.085c0.007-0.064,0.059-0.641-0.102-1.223
					c-0.15-0.553-0.438-0.932-0.858-1.125c-0.58-0.272-1.912-0.36-3.659-0.241c-0.038,0.002-0.073-0.023-0.076-0.06
					c-0.005-0.038,0.02-0.074,0.056-0.08c1.918-0.382,3.197-0.441,3.801-0.17c0.031,0.012,0.066,0.007,0.091-0.014
					s0.037-0.055,0.029-0.086l-0.009-0.033c-0.071-0.257-0.479-1.56-1.52-1.651c-0.549-0.049-1.61,0.25-2.981,0.846
					c-0.035,0.012-0.075,0-0.093-0.035c-0.017-0.033-0.003-0.075,0.027-0.094c1.437-0.864,2.464-1.287,3.047-1.252
					c0.02,0.003,0.031,0.003,0.042,0c0.037-0.011,0.06-0.047,0.048-0.087c-0.005-0.012-0.006-0.019-0.011-0.023
					c-0.084-0.126-0.851-1.204-1.801-0.95c-0.474,0.127-1.265,0.695-2.229,1.601c-0.024,0.024-0.066,0.024-0.095,0
					c-0.026-0.026-0.03-0.067-0.006-0.096c1.006-1.264,1.783-1.977,2.307-2.127c0.021-0.005,0.036-0.022,0.04-0.044
					c0.003-0.021-0.005-0.044-0.021-0.054c-0.011-0.009-1.061-0.774-1.81-0.251c-0.438,0.307-1.219,1.947-1.639,2.83
					c-0.016,0.032-0.049,0.046-0.083,0.038c-0.033-0.01-0.056-0.041-0.051-0.076c1.462-13.831,5.862-24.885,12.073-30.324
					c0.195-0.176,0.288-0.398,0.251-0.613c-0.003-0.021-0.007-0.038-0.013-0.057c-0.058-0.208-0.217-0.369-0.424-0.432
					c-0.018-0.002-1.743-0.507-3.816-0.501c-2.814,0.004-4.957,0.94-6.193,2.701c-1.63,2.322-2.97,8.205-3.673,16.138
					c-0.004,0.038-0.037,0.066-0.073,0.066c-0.037-0.004-0.067-0.032-0.068-0.069c-0.266-8.271,0.383-13.808,1.871-16.009
					c0.115-0.174,0.12-0.41,0.021-0.579c-0.104-0.185-0.302-0.29-0.513-0.276c-0.066,0.005-1.64,0.112-3.381,0.747
					c-2.376,0.871-3.899,2.32-4.401,4.188c-0.659,2.448,0.013,7.8,1.843,14.689c0.009,0.036-0.009,0.074-0.044,0.083
					c-0.035,0.015-0.075-0.002-0.088-0.039c-1.179-2.925-2.08-5.509-2.677-7.68c-0.834-3.031-1.084-5.254-0.743-6.615
					c0.044-0.174-0.018-0.373-0.158-0.49c-0.142-0.12-0.341-0.149-0.51-0.075c-0.056,0.022-1.351,0.595-2.629,1.671
					c-1.737,1.468-2.58,3.156-2.429,4.889c0.028,0.348,0.104,0.742,0.225,1.177c0.671,2.443,2.791,6.29,5.97,10.834
					c0.022,0.032,0.016,0.074-0.013,0.096c-0.029,0.024-0.071,0.022-0.096-0.008c-4.208-4.662-6.661-8.188-7.294-10.491
					c-0.068-0.251-0.115-0.487-0.139-0.704c-0.016-0.173-0.129-0.305-0.28-0.361c-0.156-0.053-0.329-0.018-0.448,0.093
					c-0.138,0.132-3.369,3.277-2.493,6.455c0.06,0.219,0.141,0.438,0.236,0.646c0.887,1.905,4.19,4.947,9.068,8.349
					c0.031,0.022,0.04,0.064,0.02,0.094c-0.019,0.034-0.059,0.045-0.093,0.028c-5.471-2.908-8.819-5.382-9.68-7.158
					c-0.064-0.128-0.199-0.214-0.343-0.214s-0.278,0.082-0.342,0.212c-0.136,0.279-1.307,2.781-0.698,4.99
					c0.182,0.666,0.508,1.235,0.974,1.702c1.293,1.295,4.882,2.814,9.844,4.164c0.026,0.006,0.042,0.024,0.048,0.047
					c0.004,0.012,0.004,0.023,0.002,0.035c-0.008,0.037-0.042,0.06-0.079,0.054c-5.4-0.771-8.92-1.823-10.18-3.042
					c-0.091-0.089-0.227-0.119-0.348-0.074c-0.12,0.041-0.206,0.151-0.221,0.278c-0.006,0.059-0.149,1.467,0.239,2.885
					c0.36,1.312,1.05,2.215,2.05,2.683c1.525,0.712,5.121,0.883,9.866,0.464c0.037-0.002,0.069,0.024,0.077,0.06
					c0.004,0.039-0.02,0.073-0.057,0.081c-4.976,1.068-8.388,1.285-9.861,0.627c-0.104-0.049-0.221-0.031-0.31,0.041
					c-0.088,0.072-0.125,0.186-0.098,0.298c0,0,0.006,0.028,0.02,0.078c0.17,0.615,1.14,3.699,3.622,3.919
					c1.574,0.14,4.822-0.896,8.908-2.838c0.034-0.017,0.074-0.005,0.092,0.028c0.02,0.034,0.007,0.074-0.024,0.096
					c-4.081,2.594-7.03,3.908-8.528,3.802c-0.1-0.009-0.192,0.044-0.241,0.127s-0.049,0.186,0.008,0.275
					c0.078,0.118,1.962,2.88,4.303,2.256c1.339-0.359,3.7-2.165,6.473-4.959c0.028-0.026,0.068-0.029,0.098-0.005
					c0.027,0.026,0.033,0.068,0.009,0.098c-2.589,3.342-4.56,5.225-5.852,5.591c-0.084,0.024-0.146,0.094-0.161,0.178
					s0.02,0.173,0.088,0.223c0.104,0.074,2.539,1.833,4.329,0.585c1.035-0.726,2.493-3.02,3.998-6.299
					c0.015-0.033,0.055-0.05,0.09-0.038c0.035,0.017,0.052,0.052,0.042,0.088c-1.198,3.815-2.32,6.122-3.332,6.855
					c-0.062,0.046-0.091,0.12-0.079,0.192l0.005,0.019c0.018,0.066,0.07,0.117,0.134,0.137c0.11,0.032,2.7,0.778,3.83-0.836
					c0.749-1.063,1.248-3.421,1.486-7.005c0-0.038,0.033-0.068,0.071-0.066c0.037,0,0.067,0.031,0.068,0.066
					c0.171,3.83-0.087,6.375-0.751,7.356c-0.039,0.059-0.039,0.143-0.009,0.196c0.037,0.062,0.104,0.099,0.175,0.093
					C170.984,282.561,173.564,282.368,174.051,280.56z"/>
			</g>
		</g>
		<g>
			<path fill="#BCC0D1" d="M206.645,257.228h3.589l-11.46,24.423h-3.573l5.493-11.72l-6.249-12.703h3.648l4.368,9.135
				L206.645,257.228z"/>
			<path fill="#BCC0D1" d="M218.531,270.82c-1.534,0-2.303-0.927-2.303-2.781v-7.929h5.118v-2.882h-5.16v-2.404h-2.76l-2.333,4.971
				v0.315h1.934v7.173c0,1.468,0.069,2.46,0.204,2.981c0.135,0.522,0.301,0.944,0.501,1.268c0.198,0.322,0.45,0.611,0.755,0.869
				c0.973,0.856,2.192,1.285,3.658,1.285c1.453,0,2.795-0.344,4.026-1.038v-2.989C220.893,270.433,219.68,270.82,218.531,270.82z"/>
			<path fill="#BCC0D1" d="M231.627,257.192c2.463,0,4.507,0.793,6.138,2.382c1.629,1.59,2.443,3.584,2.443,5.986
				c0,2.334-0.827,4.271-2.479,5.813c-1.653,1.542-3.733,2.312-6.242,2.312c-2.428,0-4.455-0.784-6.085-2.347
				c-1.629-1.565-2.443-3.52-2.443-5.866c0-2.367,0.822-4.339,2.47-5.915C227.077,257.98,229.142,257.192,231.627,257.192z
				 M231.451,260.076c-1.535,0-2.794,0.504-3.779,1.512c-0.983,1.008-1.478,2.292-1.478,3.851c0,1.548,0.505,2.81,1.512,3.789
				c1.008,0.977,2.304,1.469,3.887,1.469c1.57,0,2.858-0.497,3.86-1.489c1.001-0.989,1.502-2.259,1.502-3.805
				c0-1.536-0.521-2.808-1.563-3.815C234.347,260.58,233.035,260.076,231.451,260.076z"/>
			<path fill="#BCC0D1" d="M245.52,257.228v2.057c1.429-1.583,3.055-2.375,4.871-2.375c1.007,0,1.946,0.261,2.812,0.784
				c0.867,0.519,1.526,1.234,1.978,2.143c0.451,0.909,0.677,2.349,0.677,4.32v9.247h-3.199v-9.214c0-1.652-0.252-2.835-0.756-3.544
				c-0.504-0.708-1.349-1.063-2.532-1.063c-1.514,0-2.796,0.754-3.851,2.269v11.552h-3.271v-16.176H245.52z"/>
			<polygon fill="#BCC0D1" points="195.042,250.87 181.274,250.87 181.274,254 187.322,254 187.322,281.651 190.856,281.651 
				190.856,254 196.539,254 			"/>
		</g>
	</g>
</g>
</svg>
